<svg width="24" height="24" viewBox="0 0 24 24" fill="none" xmlns="http://www.w3.org/2000/svg">
<path fill-rule="evenodd" clip-rule="evenodd" d="M5 4.75C5 4.33579 5.33579 4 5.75 4H15.75C16.1642 4 16.5 4.33579 16.5 4.75V5.75H17.625C18.3844 5.75 19 6.36561 19 7.125V9.5C19 10.6046 18.1046 11.5 17 11.5H11.75V13H12.25C12.6642 13 13 13.3358 13 13.75V18C13 19.1046 12.1046 20 11 20C9.89543 20 9 19.1046 9 18V13.75C9 13.3358 9.33579 13 9.75 13H10.25V11.3875C10.25 10.6212 10.8712 10 11.6375 10H17C17.2761 10 17.5 9.77614 17.5 9.5V7.25H16.5V8.25C16.5 8.66421 16.1642 9 15.75 9H5.75C5.33579 9 5 8.66421 5 8.25V4.75ZM10.5 14.5V18C10.5 18.2761 10.7239 18.5 11 18.5C11.2761 18.5 11.5 18.2761 11.5 18V14.5H10.5ZM6.5 5.5V7.5H15V5.5H6.5Z" fill="#292A2E"/>
</svg>
