<svg width="24" height="24" viewBox="0 0 24 24" fill="none" xmlns="http://www.w3.org/2000/svg">
<path fill-rule="evenodd" clip-rule="evenodd" d="M16.0356 6.90374C13.4841 4.87807 9.76285 5.04476 7.40381 7.40381C4.8654 9.94221 4.8654 14.0578 7.40381 16.5962C8.67316 17.8655 10.3353 18.5 12 18.5V20C9.95378 20 7.9051 19.2188 6.34315 17.6569C3.21895 14.5327 3.21895 9.46734 6.34315 6.34315C9.46734 3.21895 14.5327 3.21895 17.6569 6.34315L18.1872 6.87348L12.2803 12.7803L11.2197 11.7197L13.5242 9.41518C12.3737 8.73573 10.8671 8.89023 9.87868 9.87868C8.70711 11.0503 8.70711 12.9497 9.87868 14.1213C10.4646 14.7073 11.2311 15 12 15V16.5C10.8495 16.5 9.69655 16.0605 8.81802 15.182C7.06066 13.4246 7.06066 10.5754 8.81802 8.81802C10.3947 7.24135 12.8503 7.07924 14.6077 8.33168L16.0356 6.90374Z" fill="#292A2E"/>
<path fill-rule="evenodd" clip-rule="evenodd" d="M18.5802 8.86173C18.9704 8.72267 19.3994 8.92623 19.5385 9.31641L19.5471 9.34086C19.6849 9.73148 19.48 10.1598 19.0893 10.2976C18.6987 10.4354 18.2703 10.2305 18.1326 9.83983L18.1255 9.81999C17.9865 9.42982 18.19 9.00079 18.5802 8.86173ZM15.7823 11.435C16.1961 11.4553 16.5149 11.8072 16.4946 12.2209L16.4938 12.2355L16.493 12.2502C16.47 12.6637 16.1161 12.9804 15.7026 12.9574C15.289 12.9344 14.9724 12.5804 14.9954 12.1669L14.9959 12.157L14.9964 12.1472C15.0167 11.7335 15.3686 11.4146 15.7823 11.435ZM19.2787 11.6186C19.6924 11.6396 20.0107 11.992 19.9897 12.4057L19.989 12.4187L19.9883 12.4317C19.966 12.8453 19.6126 13.1625 19.199 13.1402C18.7854 13.1179 18.4682 12.7644 18.4905 12.3508L18.4911 12.3402L18.4916 12.3296C18.5127 11.9159 18.8651 11.5976 19.2787 11.6186ZM15.074 14.275C15.3522 14.5819 15.3288 15.0562 15.0219 15.3344C15.0147 15.3409 15.0075 15.3474 15.0002 15.3539C14.6915 15.6301 14.2174 15.6037 13.9412 15.295C13.665 14.9863 13.6914 14.5121 14.0001 14.236L14.0146 14.2229C14.3216 13.9448 14.7959 13.9681 15.074 14.275ZM18.8725 14.4341C19.2466 14.612 19.4057 15.0594 19.2278 15.4335L19.2167 15.4569C19.0376 15.8304 18.5896 15.988 18.2161 15.809C17.8426 15.6299 17.685 15.1819 17.8641 14.8084L17.8732 14.7894C18.051 14.4153 18.4985 14.2563 18.8725 14.4341ZM17.4165 16.8772C17.6941 17.1846 17.6701 17.6588 17.3627 17.9365L17.3434 17.9539C17.0351 18.2305 16.561 18.2049 16.2843 17.8966C16.0076 17.5884 16.0332 17.1142 16.3415 16.8375L16.3572 16.8234C16.6646 16.5457 17.1388 16.5698 17.4165 16.8772ZM15.1383 18.5802C15.2774 18.9704 15.0738 19.3994 14.6836 19.5385L14.6592 19.5472C14.2686 19.685 13.8402 19.48 13.7024 19.0894C13.5646 18.6987 13.7696 18.2704 14.1602 18.1326L14.18 18.1256C14.5702 17.9865 14.9992 18.1901 15.1383 18.5802Z" fill="#292A2E"/>
</svg>
