<svg width="24" height="24" viewBox="0 0 24 24" fill="none" xmlns="http://www.w3.org/2000/svg">
<rect x="9" y="9" width="6" height="9" fill="#DE350B"/>
<path fill-rule="evenodd" clip-rule="evenodd" d="M12.7497 4V7H11.2497V4H12.7497ZM6.12316 5.06282L8.17126 7.11091L7.1106 8.17157L5.0625 6.12348L6.12316 5.06282ZM18.9369 6.12348L16.8888 8.17157L15.8281 7.11091L17.8762 5.06282L18.9369 6.12348ZM8.19497 9.87543C8.25975 9.09799 8.90965 8.5 9.68978 8.5H14.3096C15.0897 8.5 15.7396 9.09799 15.8044 9.87543L16.4398 17.5H17.9997V19H5.99968V17.5H7.55959L8.19497 9.87543ZM9.06478 17.5H14.9346L14.3096 10H9.68978L9.06478 17.5Z" fill="#DE350B"/>
</svg>
