<svg width="16" height="16" viewBox="0 0 16 16" fill="none" xmlns="http://www.w3.org/2000/svg">
<g clip-path="url(#clip0_2389_90374)">
<path d="M15.3447 7.54345L14.131 14.9576C14.0519 15.4062 13.7353 15.67 13.2867 15.67H2.9966C2.54806 15.67 2.23144 15.4062 2.15229 14.9576L0.0151098 1.73878C-0.0640449 1.29023 0.173419 1 0.595577 1H15.6877C16.1099 1 16.3474 1.29023 16.2682 1.73878L15.6877 5.22158C15.6086 5.7229 15.3183 5.93397 14.8434 5.93397H5.76702C5.63509 5.93397 5.55594 6.01313 5.58232 6.17144L6.29471 10.5513C6.3211 10.6569 6.40025 10.736 6.50579 10.736H9.77752C9.88306 10.736 9.96221 10.6569 9.9886 10.5513L10.4899 7.38514C10.5427 6.98937 10.8065 6.83106 11.1759 6.83106H14.7379C15.2656 6.83106 15.4239 7.09491 15.3447 7.54345Z" fill="#1868DB"/>
</g>
<defs>
<clipPath id="clip0_2389_90374">
<rect width="16" height="16" fill="white"/>
</clipPath>
</defs>
</svg>
