<svg width="24" height="24" viewBox="0 0 24 24" fill="none" xmlns="http://www.w3.org/2000/svg">
<path d="M2 7C2 4.23858 4.23858 2 7 2H17C19.7614 2 22 4.23858 22 7V17C22 19.7614 19.7614 22 17 22H7C4.23858 22 2 19.7614 2 17V7Z" fill="#1868DB"/>
<path d="M16.9065 14.051C13.541 12.4236 12.5578 12.1804 11.1397 12.1804C9.47584 12.1804 8.05777 12.8725 6.79097 14.8179L6.58298 15.1359C6.41282 15.3977 6.375 15.4913 6.375 15.6035C6.375 15.7157 6.43172 15.8093 6.63971 15.9402L8.77626 17.2683C8.88971 17.3431 8.98424 17.3805 9.07878 17.3805C9.19223 17.3805 9.26786 17.3244 9.3813 17.156L9.72164 16.6323C10.2511 15.828 10.7237 15.5661 11.3288 15.5661C11.8582 15.5661 12.4821 15.7157 13.2574 16.0898L15.4884 17.1373C15.7153 17.2496 15.9611 17.1934 16.0746 16.9316L17.1334 14.6121C17.2468 14.3503 17.1712 14.1819 16.9065 14.051ZM7.09349 9.95453C10.459 11.5819 11.4422 11.825 12.8603 11.825C14.5242 11.825 15.9422 11.133 17.209 9.18761L17.417 8.86962C17.5872 8.60775 17.625 8.51423 17.625 8.40199C17.625 8.28976 17.5683 8.19624 17.3603 8.0653L15.2237 6.73723C15.1103 6.66241 15.0158 6.625 14.9212 6.625C14.8078 6.625 14.7321 6.68112 14.6187 6.84946L14.2784 7.37321C13.749 8.17753 13.2763 8.4394 12.6712 8.4394C12.1418 8.4394 11.5179 8.28976 10.7426 7.91566L8.51155 6.86817C8.28466 6.75594 8.03887 6.81205 7.92542 7.07392L6.8666 9.39337C6.75315 9.65524 6.82878 9.82359 7.09349 9.95453Z" fill="white"/>
</svg>
