<svg width="24" height="24" viewBox="0 0 24 24" fill="none" xmlns="http://www.w3.org/2000/svg">
<path fill-rule="evenodd" clip-rule="evenodd" d="M5 7C5 5.89543 5.89543 5 7 5H15C16.1046 5 17 5.89543 17 7V15C17 16.1046 16.1046 17 15 17H7C5.89543 17 5 16.1046 5 15V7ZM7 6.5C6.72386 6.5 6.5 6.72386 6.5 7V15C6.5 15.2761 6.72386 15.5 7 15.5H15C15.2761 15.5 15.5 15.2761 15.5 15V7C15.5 6.72386 15.2761 6.5 15 6.5H7ZM8 8H14V9.5H8V8ZM18.5 16.75L18.5 10H20L20 16.75C20 18.5449 18.5449 20 16.75 20H10V18.5H16.75C17.7165 18.5 18.5 17.7165 18.5 16.75ZM8 11H12.5V12.5H8V11Z" fill="#1868DB"/>
</svg>
