<svg width="20" height="20" viewBox="0 0 20 20" fill="none" xmlns="http://www.w3.org/2000/svg">
<path d="M9.15164 0.225293C9.67732 -0.0750978 10.3227 -0.0750974 10.8483 0.225293L18.1155 4.37794C18.6482 4.68238 18.977 5.24895 18.977 5.86256V14.1374C18.977 14.7511 18.6482 15.3176 18.1155 15.6221L10.8483 19.7747C10.3227 20.0751 9.67732 20.0751 9.15164 19.7747L1.88451 15.6221C1.35174 15.3176 1.02295 14.7511 1.02295 14.1374V5.86256C1.02295 5.24895 1.35174 4.68238 1.88451 4.37794L9.15164 0.225293Z" fill="#BF63F3"/>
<mask id="mask0_3027_253026" style="mask-type:alpha" maskUnits="userSpaceOnUse" x="1" y="0" width="18" height="20">
<path d="M9.15237 0.225293C9.67806 -0.0750978 10.3234 -0.0750974 10.8491 0.225293L18.1162 4.37794C18.649 4.68238 18.9778 5.24895 18.9778 5.86256V14.1374C18.9778 14.7511 18.649 15.3176 18.1162 15.6221L10.8491 19.7747C10.3234 20.0751 9.67806 20.0751 9.15237 19.7747L1.88524 15.6221C1.35247 15.3176 1.02368 14.7511 1.02368 14.1374V5.86256C1.02368 5.24895 1.35247 4.68238 1.88524 4.37794L9.15237 0.225293Z" fill="#BF63F3"/>
</mask>
<g mask="url(#mask0_3027_253026)">
<path d="M3.55034 25.7266C4.51722 23.8762 5.92904 22.4257 7.78825 21.4381C9.64746 20.4505 11.8065 20.0275 13.9924 20.279L2.23286 -1.40686C0.282854 -1.054 -1.61315 -0.402938 -3.43793 0.566386C-5.26271 1.53571 -6.83182 2.69611 -8.19445 4.06206L3.55525 25.7298L3.55034 25.7266Z" fill="#82B536"/>
<path d="M10.3295 12.6048C7.08495 13.9472 4.60704 16.1646 4.50612 19.2335C4.50612 19.2335 4.50785 19.2492 4.50621 19.2569C4.49957 19.4849 4.50381 19.7155 4.52479 19.9508C4.52564 19.9528 4.52648 19.9548 4.52732 19.9568C4.54706 20.195 4.58144 20.4389 4.62963 20.6865C4.64198 20.7448 4.66019 20.8053 4.67254 20.8635C4.71678 21.0611 4.76102 21.2587 4.82492 21.4622C4.90956 21.7323 5.00801 22.006 5.12613 22.2856C5.34466 22.803 5.601 23.2648 5.87762 23.6759C6.24589 24.2229 6.64976 24.6799 7.05207 25.0579C7.15317 25.1522 7.25258 25.2424 7.35447 25.327C7.82803 25.6473 8.51975 26.0721 9.6788 26.611C10.4359 26.9642 11.3975 27.3664 12.629 27.8214C13.6137 26.3227 15.4157 25.1571 17.1021 23.8515C18.4336 22.8196 19.6894 21.7016 20.4052 20.2626C21.0618 18.9444 21.0788 17.3018 20.3591 15.5979C18.5578 11.3333 14.5705 10.8476 10.3328 12.6011L10.3295 12.6048Z" fill="#FCA700"/>
<path d="M21.4372 -10.6855L-2.69289 -6.37983C-2.69289 -6.37983 -0.208205 4.5372 -5.60155 14.4755C-4.86307 14.5316 -4.11598 14.5655 -3.36057 14.5549C10.5318 14.3612 21.6329 3.06003 21.4371 -10.6899L21.4372 -10.6855Z" fill="#1868DB"/>
</g>
<path d="M9.45406 4.52261C9.84526 4.30668 10.3227 4.31065 10.7108 4.53451L14.4858 6.71402C14.8809 6.94195 15.1254 7.36484 15.1254 7.82041V12.1795C15.1254 12.6368 14.8824 13.0579 14.4861 13.2857L11.6484 14.924C11.6546 14.9066 11.6605 14.889 11.6662 14.8713C11.7188 14.708 11.7468 14.5354 11.7468 14.359V9.99994C11.7468 9.4011 11.4282 8.84887 10.9087 8.55014L8.79339 7.32939V5.64087C8.79339 5.50782 8.81396 5.37785 8.85288 5.25481C8.94858 4.95703 9.15211 4.69924 9.43056 4.53832L9.4314 4.53783C9.43938 4.53322 9.44698 4.52811 9.45406 4.52261Z" fill="white"/>
<path d="M8.4934 5.08006L5.65568 6.7184C5.25942 6.94622 5.01636 7.36724 5.01636 7.82461V12.1837C5.01636 12.6392 5.26086 13.0621 5.65594 13.29L9.43104 15.4696C9.81906 15.6934 10.2966 15.6974 10.6877 15.4815C10.6948 15.476 10.7024 15.4709 10.7104 15.4663C10.9891 15.3055 11.1929 15.0476 11.2888 14.7497C11.3278 14.6265 11.3484 14.4964 11.3484 14.3632V12.6747L9.2332 11.454C8.71378 11.1553 8.39504 10.6029 8.39504 10.0041V5.64508C8.39504 5.46892 8.42288 5.29657 8.47541 5.13345C8.48112 5.11554 8.48711 5.09774 8.4934 5.08006Z" fill="white"/>
</svg>
