<svg width="24" height="24" viewBox="0 0 24 24" fill="none" xmlns="http://www.w3.org/2000/svg">
<path fill-rule="evenodd" clip-rule="evenodd" d="M11 6.5C8.51472 6.5 6.5 8.51472 6.5 11C6.5 13.4853 8.51472 15.5 11 15.5C12.2428 15.5 13.3668 14.9971 14.182 14.182C14.9971 13.3668 15.5 12.2428 15.5 11C15.5 8.51472 13.4853 6.5 11 6.5ZM5 11C5 7.68629 7.68629 5 11 5C14.3137 5 17 7.68629 17 11C17 12.3862 16.5292 13.6635 15.7399 14.6792L19.0303 17.9697L17.9697 19.0303L14.6792 15.7399C13.6635 16.5292 12.3862 17 11 17C7.68629 17 5 14.3137 5 11Z" fill="#292A2E"/>
</svg>
