<svg width="32" height="32" viewBox="0 0 32 32" fill="none" xmlns="http://www.w3.org/2000/svg">
<path fill-rule="evenodd" clip-rule="evenodd" d="M14.0576 8.46154C14.174 8.18205 14.4471 8 14.7499 8H17.2499C17.5527 8 17.8257 8.18205 17.9422 8.46154L18.9683 10.9242L21.5459 10.5503C21.8497 10.5062 22.1496 10.6517 22.3031 10.9175L23.5531 13.0826C23.7032 13.3425 23.6838 13.6668 23.5039 13.9071L21.9368 16L23.5039 18.093C23.6838 18.3332 23.7031 18.6576 23.5531 18.9175L22.3031 21.0826C22.1496 21.3484 21.8496 21.4939 21.5459 21.4498L18.9683 21.0758L17.9422 23.5385C17.8257 23.8179 17.5527 24 17.2499 24H14.7499C14.4471 24 14.174 23.8179 14.0576 23.5385L13.0315 21.0758L10.4539 21.4498C10.1501 21.4939 9.85015 21.3484 9.69668 21.0826L8.44668 18.9175C8.29661 18.6576 8.31595 18.3332 8.49584 18.093L10.0629 16L8.49584 13.9071C8.31595 13.6668 8.29661 13.3425 8.44667 13.0826L9.69667 10.9175C9.85015 10.6517 10.1501 10.5062 10.4539 10.5503L13.0315 10.9242L14.0576 8.46154ZM15.2499 9.5L14.3788 11.5907C14.1372 12.1704 13.5336 12.5127 12.9121 12.4226L10.7416 12.1077L9.99309 13.4041L11.3198 15.1759C11.6855 15.6644 11.6855 16.3356 11.3198 16.8241L9.9931 18.596L10.7416 19.8923L12.9121 19.5774C13.5336 19.4873 14.1372 19.8296 14.3788 20.4093L15.2499 22.5H16.7499L17.621 20.4093C17.8625 19.8296 18.4662 19.4873 19.0876 19.5774L21.2582 19.8923L22.0067 18.596L20.68 16.8241C20.3142 16.3356 20.3142 15.6644 20.68 15.1759L22.0067 13.4041L21.2582 12.1077L19.0876 12.4226C18.4661 12.5127 17.8625 12.1704 17.621 11.5907L16.7499 9.5H15.2499ZM15.9999 14.5C15.1715 14.5 14.4999 15.1716 14.4999 16C14.4999 16.8284 15.1715 17.5 15.9999 17.5C16.8283 17.5 17.4999 16.8284 17.4999 16C17.4999 15.1716 16.8283 14.5 15.9999 14.5ZM12.9999 16C12.9999 14.3431 14.343 13 15.9999 13C17.6567 13 18.9999 14.3431 18.9999 16C18.9999 17.6569 17.6567 19 15.9999 19C14.343 19 12.9999 17.6569 12.9999 16Z" fill="#505258"/>
</svg>
