<svg width="24" height="24" viewBox="0 0 24 24" fill="none" xmlns="http://www.w3.org/2000/svg">
<path fill-rule="evenodd" clip-rule="evenodd" d="M12 3.875C7.51269 3.875 3.875 7.51269 3.875 12C3.875 14.5155 5.01787 16.7649 6.81517 18.2561C7.22125 16.8101 8.54931 15.75 10.125 15.75H13.875C15.4506 15.75 16.7787 16.8101 17.1849 18.2561C18.9821 16.7649 20.125 14.5155 20.125 12C20.125 7.51269 16.4874 3.875 12 3.875ZM15.4375 19.3644V19.1875C15.4375 18.3245 14.738 17.625 13.875 17.625H10.125C9.26205 17.625 8.5625 18.3245 8.5625 19.1875V19.3644C8.58771 19.3761 8.613 19.3879 8.63835 19.3994C9.66163 19.8651 10.7991 20.125 12 20.125C13.2009 20.125 14.3384 19.8651 15.3616 19.3994C15.387 19.3879 15.4123 19.3761 15.4375 19.3644ZM2 12C2 6.47715 6.47715 2 12 2C17.5229 2 22 6.47715 22 12C22 15.7734 19.9096 19.0572 16.8283 20.7591C16.6035 20.8832 16.3734 20.999 16.1384 21.106C14.8761 21.6805 13.4741 22 12 22C10.5259 22 9.12392 21.6805 7.86165 21.106C7.62665 20.999 7.39654 20.8832 7.17176 20.7591C4.09035 19.0572 2 15.7734 2 12ZM12 7.625C10.6193 7.625 9.5 8.74429 9.5 10.125C9.5 11.5057 10.6193 12.625 12 12.625C13.3807 12.625 14.5 11.5057 14.5 10.125C14.5 8.74429 13.3807 7.625 12 7.625ZM7.625 10.125C7.625 7.70875 9.58375 5.75 12 5.75C14.4162 5.75 16.375 7.70875 16.375 10.125C16.375 12.5412 14.4162 14.5 12 14.5C9.58375 14.5 7.625 12.5412 7.625 10.125Z" fill="#505258"/>
</svg>
