<svg width="24" height="24" viewBox="0 0 24 24" fill="none" xmlns="http://www.w3.org/2000/svg">
<path d="M17.5 7.09615C17.5 6.74249 17.1428 6.50011 16.8145 6.6313L11.5 8.7563V13.4917L16.8145 15.6176C17.1428 15.7488 17.5 15.5064 17.5 15.1528V7.09615ZM9 16.9995C9 17.2756 9.22386 17.4995 9.5 17.4995H10V14.7495H9V16.9995ZM6.5 12.7495C6.5 13.0256 6.72386 13.2495 7 13.2495H10V8.99947H7C6.72386 8.99947 6.5 9.22333 6.5 9.49947V12.7495ZM19 15.1528C19 16.5677 17.5706 17.5357 16.2568 17.0102L11.5 15.1069V18.2495C11.5 18.6637 11.1642 18.9995 10.75 18.9995H9.5C8.39543 18.9995 7.5 18.104 7.5 16.9995V14.7495H7C5.89543 14.7495 5 13.854 5 12.7495V9.49947C5 8.3949 5.89543 7.49947 7 7.49947H10.6055L16.2568 5.23873C17.5706 4.71323 19 5.68122 19 7.09615V15.1528Z" fill="#292A2E"/>
</svg>
