<svg width="24" height="24" viewBox="0 0 24 24" fill="none" xmlns="http://www.w3.org/2000/svg">
<path fill-rule="evenodd" clip-rule="evenodd" d="M12.5303 4.21967C12.2374 3.92678 11.7626 3.92678 11.4697 4.21967C10.1717 5.51768 8.68644 6.41144 7.51527 6.98201C6.9318 7.26626 6.43189 7.46759 6.08056 7.59702C5.90505 7.66169 5.76707 7.70824 5.6748 7.73811C5.62869 7.75303 5.59403 7.76378 5.57187 7.77051L5.54815 7.77763L5.54322 7.77907C5.22164 7.8713 5 8.1654 5 8.5C5 12.8377 6.6512 15.6756 8.33438 17.4261C9.17004 18.2952 10.0064 18.8894 10.6376 19.2681C10.9535 19.4577 11.2194 19.5941 11.41 19.6845C11.5054 19.7297 11.5821 19.7635 11.637 19.7868C11.6645 19.7985 11.6865 19.8075 11.7028 19.814L11.7227 19.8219L11.7293 19.8244L11.7317 19.8254L11.7327 19.8258C11.9043 19.891 12.0957 19.891 12.2673 19.8258L12.2683 19.8254L12.2707 19.8244L12.2773 19.8219L12.2972 19.814C12.3135 19.8075 12.3355 19.7985 12.363 19.7868C12.4179 19.7635 12.4946 19.7297 12.59 19.6845C12.7806 19.5941 13.0465 19.4577 13.3624 19.2681C13.9936 18.8894 14.83 18.2952 15.6656 17.4261C17.3488 15.6756 19 12.8377 19 8.5C19 8.16525 18.7778 7.87096 18.456 7.77886L18.4519 7.77763L18.4281 7.77051C18.406 7.76378 18.3713 7.75303 18.3252 7.73811C18.2329 7.70824 18.0949 7.66169 17.9194 7.59702C17.5681 7.46759 17.0682 7.26626 16.4847 6.98201C15.3136 6.41144 13.8283 5.51768 12.5303 4.21967ZM12 5.78332C10.6898 6.96277 9.28647 7.78766 8.17223 8.33049C7.53695 8.63999 6.98999 8.86054 6.59912 9.00454C6.56825 9.01591 6.53835 9.02681 6.50944 9.03724C6.63719 12.6407 8.04094 14.9567 9.41562 16.3864C10.1425 17.1423 10.8686 17.6574 11.4093 17.9819C11.6494 18.1259 11.8518 18.2317 12 18.3038C12.1482 18.2317 12.3506 18.1259 12.5907 17.9819C13.1314 17.6574 13.8575 17.1423 14.5844 16.3864C15.9591 14.9567 17.3628 12.6407 17.4906 9.03724C17.4617 9.02681 17.4317 9.01591 17.4009 9.00454C17.01 8.86054 16.4631 8.63999 15.8278 8.33049C14.7135 7.78766 13.3102 6.96277 12 5.78332Z" fill="#2663EB"/>
</svg>
