<svg width="24" height="24" viewBox="0 0 24 24" fill="none" xmlns="http://www.w3.org/2000/svg">
<path fill-rule="evenodd" clip-rule="evenodd" d="M16.75 7.5C16.3358 7.5 16 7.83579 16 8.25C16 8.66421 16.3358 9 16.75 9C17.1642 9 17.5 8.66421 17.5 8.25C17.5 7.83579 17.1642 7.5 16.75 7.5ZM14.5 8.25C14.5 7.00736 15.5074 6 16.75 6C17.9926 6 19 7.00736 19 8.25C19 9.49264 17.9926 10.5 16.75 10.5C15.5074 10.5 14.5 9.49264 14.5 8.25Z" fill="#292A2E"/>
<path fill-rule="evenodd" clip-rule="evenodd" d="M16.75 15C16.3358 15 16 15.3358 16 15.75C16 16.1642 16.3358 16.5 16.75 16.5C17.1642 16.5 17.5 16.1642 17.5 15.75C17.5 15.3358 17.1642 15 16.75 15ZM14.5 15.75C14.5 14.5074 15.5074 13.5 16.75 13.5C17.9926 13.5 19 14.5074 19 15.75C19 16.9926 17.9926 18 16.75 18C15.5074 18 14.5 16.9926 14.5 15.75Z" fill="#292A2E"/>
<path fill-rule="evenodd" clip-rule="evenodd" d="M5 15L16 15V16.5L5 16.5L5 15Z" fill="#292A2E"/>
<path fill-rule="evenodd" clip-rule="evenodd" d="M11.25 9C10.9739 9 10.75 9.22386 10.75 9.5V15.75H9.25V9.5C9.25 8.39543 10.1454 7.5 11.25 7.5H16V9H11.25Z" fill="#292A2E"/>
</svg>
