<svg width="32" height="32" viewBox="0 0 32 32" fill="none" xmlns="http://www.w3.org/2000/svg">
<g clip-path="url(#clip0_702_87130)">
<g clip-path="url(#clip1_702_87130)">
<g clip-path="url(#clip2_702_87130)">
<g clip-path="url(#clip3_702_87130)">
<path d="M27.5463 24.3785L16.9614 3.20874C16.753 2.75034 16.5447 2.66699 16.2946 2.66699C16.0863 2.66699 15.8362 2.75034 15.5862 3.16706C14.086 5.54241 13.4192 8.2928 13.4192 11.1682C13.4192 15.1688 15.4612 18.9193 18.4616 24.9619C18.795 25.6286 19.045 25.7537 19.6285 25.7537H26.9629C27.5046 25.7537 27.7963 25.5453 27.7963 25.1286C27.7963 24.9202 27.7546 24.7952 27.5463 24.3785ZM12.1691 14.377C11.3356 13.1268 11.0856 13.0435 10.8772 13.0435C10.6688 13.0435 10.5438 13.1268 10.1688 13.8769L4.87633 24.4618C4.70964 24.7952 4.66797 24.9202 4.66797 25.0869C4.66797 25.4203 4.95968 25.7537 5.58477 25.7537H13.0442C13.5443 25.7537 13.9193 25.3369 14.1277 24.5452C14.3777 23.545 14.461 22.6699 14.461 21.6281C14.461 18.711 13.1692 15.8772 12.1691 14.377Z" fill="#1868DB"/>
</g>
</g>
</g>
</g>
<defs>
<clipPath id="clip0_702_87130">
<rect width="32" height="32" fill="white"/>
</clipPath>
<clipPath id="clip1_702_87130">
<rect width="32" height="32" fill="white"/>
</clipPath>
<clipPath id="clip2_702_87130">
<rect width="32" height="32" fill="white"/>
</clipPath>
<clipPath id="clip3_702_87130">
<rect width="23.1283" height="23.0867" fill="white" transform="translate(4.66797 2.66699)"/>
</clipPath>
</defs>
</svg>
