<svg width="24" height="24" viewBox="0 0 24 24" fill="none" xmlns="http://www.w3.org/2000/svg">
<path d="M4 7.125C4 5.67525 5.17525 4.5 6.625 4.5H12V6H6.625C6.00368 6 5.5 6.50368 5.5 7.125V17.957L8.05078 16.5H17.375C17.9963 16.5 18.5 15.9963 18.5 15.375V12.5H20V15.375C20 16.8247 18.8247 18 17.375 18H8.44922L5.12207 19.9014C4.89004 20.0339 4.60518 20.0325 4.37402 19.8984C4.14279 19.7642 4 19.5174 4 19.25V7.125Z" fill="#292A2E"/>
<path d="M16.6162 4.50879C16.8828 4.55042 17.1106 4.73402 17.2051 4.99316L17.8193 6.67969L19.5068 7.29492C19.8029 7.4029 20 7.68489 20 8L19.9912 8.11621C19.9496 8.38282 19.766 8.61055 19.5068 8.70508L17.8193 9.31934L17.2051 11.0068C17.1106 11.266 16.8828 11.4496 16.6162 11.4912L16.5 11.5C16.1849 11.5 15.9029 11.3029 15.7949 11.0068L15.1797 9.31934L13.4932 8.70508C13.234 8.61055 13.0504 8.38282 13.0088 8.11621L13 8C13 7.68489 13.1971 7.4029 13.4932 7.29492L15.1797 6.67969L15.7949 4.99316C15.8894 4.73402 16.1172 4.55042 16.3838 4.50879L16.5 4.5L16.6162 4.50879Z" fill="#292A2E"/>
</svg>
