<svg width="16" height="16" viewBox="0 0 16 16" fill="none" xmlns="http://www.w3.org/2000/svg">
<path fill-rule="evenodd" clip-rule="evenodd" d="M11.5858 0.853547C12.3668 0.0724985 13.6332 0.0724997 14.4142 0.853548L15.1464 1.58578C15.9275 2.36683 15.9275 3.63316 15.1464 4.41421L10.0094 9.55129C9.76903 9.79163 9.47141 9.96675 9.1446 10.0601L5.95604 10.9711C5.69415 11.046 5.41227 10.9729 5.21967 10.7803C5.02707 10.5877 4.95403 10.3058 5.02886 10.044L5.93987 6.8554C6.03325 6.52859 6.20837 6.23096 6.44871 5.99063L11.5858 0.853547ZM13.3536 1.91421C13.1583 1.71895 12.8417 1.71895 12.6464 1.91421L12.0607 2.49999L13.5 3.93933L14.0858 3.35355C14.281 3.15829 14.281 2.8417 14.0858 2.64644L13.3536 1.91421ZM12.4393 4.99999L11 3.56065L7.50937 7.05129C7.44928 7.11137 7.4055 7.18578 7.38216 7.26748L6.84202 9.15798L8.73251 8.61784C8.81422 8.59449 8.88862 8.55071 8.94871 8.49063L12.4393 4.99999ZM3 2.50109C2.72386 2.50109 2.5 2.72495 2.5 3.00109V13.0011C2.5 13.2772 2.72386 13.5011 3 13.5011H13C13.2761 13.5011 13.5 13.2772 13.5 13.0011V9.99999H15V13.0011C15 14.1057 14.1046 15.0011 13 15.0011H3C1.89543 15.0011 1 14.1057 1 13.0011V3.00109C1 1.89652 1.89543 1.00109 3 1.00109H6V2.50109H3Z" fill="#292A2E"/>
</svg>
