<svg width="32" height="32" viewBox="0 0 32 32" fill="none" xmlns="http://www.w3.org/2000/svg">
<path fill-rule="evenodd" clip-rule="evenodd" d="M16 9.5C12.4101 9.5 9.5 12.4101 9.5 16C9.5 19.5899 12.4101 22.5 16 22.5C19.5899 22.5 22.5 19.5899 22.5 16C22.5 12.4101 19.5899 9.5 16 9.5ZM8 16C8 11.5817 11.5817 8 16 8C20.4183 8 24 11.5817 24 16C24 20.4183 20.4183 24 16 24C11.5817 24 8 20.4183 8 16ZM16 13C15.4142 13 15 13.4142 15 14H13.5C13.5 12.5858 14.5858 11.5 16 11.5C17.4142 11.5 18.5 12.5858 18.5 14C18.5 15.1326 17.7874 15.7057 17.3384 16.0585C16.8269 16.4604 16.75 16.552 16.75 16.75V17.5H15.25V16.75C15.25 15.7726 15.939 15.2429 16.3282 14.9436C16.3579 14.9208 16.3859 14.8993 16.4116 14.879C16.8376 14.5443 17 14.3674 17 14C17 13.4142 16.5858 13 16 13Z" fill="#505258"/>
<path d="M17 19.5C17 20.0523 16.5523 20.5 16 20.5C15.4477 20.5 15 20.0523 15 19.5C15 18.9477 15.4477 18.5 16 18.5C16.5523 18.5 17 18.9477 17 19.5Z" fill="#505258"/>
</svg>
