<svg width="24" height="24" viewBox="0 0 24 24" fill="none" xmlns="http://www.w3.org/2000/svg">
<path fill-rule="evenodd" clip-rule="evenodd" d="M7 6.375C7 5.61561 7.61561 5 8.375 5H10.125C10.8844 5 11.5 5.61561 11.5 6.375V10.625C11.5 11.3844 10.8844 12 10.125 12H8.375C7.61561 12 7 11.3844 7 10.625V9.25H4V7.75H7V6.375ZM8.5 6.5V10.5H10V6.5H8.5ZM20 9.25H12.5V7.75H20V9.25ZM12.5 13.375C12.5 12.6156 13.1156 12 13.875 12H15.625C16.3844 12 17 12.6156 17 13.375V14.75H20V16.25H17V17.625C17 18.3844 16.3844 19 15.625 19H13.875C13.1156 19 12.5 18.3844 12.5 17.625V13.375ZM14 13.5V17.5H15.5V13.5H14ZM4 16.25V14.75H11.5V16.25H4Z" fill="#505258"/>
</svg>
