<svg width="24" height="24" viewBox="0 0 24 24" fill="none" xmlns="http://www.w3.org/2000/svg">
<path d="M2 7C2 4.23858 4.23858 2 7 2H17C19.7614 2 22 4.23858 22 7V17C22 19.7614 19.7614 22 17 22H7C4.23858 22 2 19.7614 2 17V7Z" fill="#1868DB"/>
<path d="M18.0221 11.3303H14.501L17.5505 9.56964L16.8808 8.40937L13.8313 10.17L15.5915 7.12074L14.4312 6.45066L12.671 9.4999V5.979H11.3316V9.50024L9.57067 6.45066L8.41077 7.12041L10.1713 10.1697L7.12184 8.40937L6.45211 9.5693L9.50161 11.3299H5.98047V12.6694H9.50127L6.45211 14.43L7.12184 15.5903L10.171 13.83L8.41043 16.8793L9.57067 17.549L11.3312 14.4994V18.0207H12.6707V14.4998L14.4309 17.549L15.5911 16.8793L13.8306 13.8297L16.8801 15.5903L17.5498 14.43L14.5007 12.6697H18.0214V11.3303H18.0221ZM12.0013 13.8216C10.9913 13.8216 10.1727 13.003 10.1727 11.9929C10.1727 10.9829 10.9913 10.1643 12.0013 10.1643C13.0113 10.1643 13.8299 10.9829 13.8299 11.9929C13.8299 13.003 13.0113 13.8216 12.0013 13.8216Z" fill="white"/>
</svg>
