<svg width="16" height="16" viewBox="0 0 16 16" fill="none" xmlns="http://www.w3.org/2000/svg">
<path d="M12.8369 1.16388C13.0673 1.01206 13.3626 0.998911 13.6055 1.1297C13.8484 1.26052 14 1.51397 14 1.78985V10.7899C14 11.0419 13.8734 11.277 13.6631 11.4158L8.41309 14.8768C8.16268 15.0418 7.83732 15.0418 7.58691 14.8768L2.33691 11.4158C2.12658 11.277 2 11.0419 2 10.7899V1.78985L2.00684 1.68731C2.03923 1.45228 2.18208 1.24412 2.39453 1.1297C2.63742 0.998911 2.93275 1.01206 3.16309 1.16388L8 4.35138L12.8369 1.16388ZM8.41309 5.87677C8.16268 6.04181 7.83732 6.04181 7.58691 5.87677L3.5 3.18243V10.3856L8 13.3514L12.5 10.3856V3.18243L8.41309 5.87677Z" fill="#2663EB"/>
</svg>
