<svg width="32" height="32" viewBox="0 0 32 32" fill="none" xmlns="http://www.w3.org/2000/svg">
<path fill-rule="evenodd" clip-rule="evenodd" d="M10 10.5C9.72386 10.5 9.5 10.7239 9.5 11V21C9.5 21.2761 9.72386 21.5 10 21.5H12V10.5H10ZM13.5 10.5V21.5H22C22.2761 21.5 22.5 21.2761 22.5 21V11C22.5 10.7239 22.2761 10.5 22 10.5H13.5ZM8 11C8 9.89543 8.89543 9 10 9H22C23.1046 9 24 9.89543 24 11V21C24 22.1046 23.1046 23 22 23H10C8.89543 23 8 22.1046 8 21V11ZM15.9697 15.4697L18.4697 12.9697L19.5303 14.0303L17.5607 16L19.5303 17.9697L18.4697 19.0303L15.9697 16.5303C15.6768 16.2374 15.6768 15.7626 15.9697 15.4697Z" fill="#505258"/>
</svg>
