<svg width="32" height="32" viewBox="0 0 32 32" fill="none" xmlns="http://www.w3.org/2000/svg">
<path fill-rule="evenodd" clip-rule="evenodd" d="M11 13C11 10.2386 13.2386 8 16 8C18.7615 8 21 10.2386 21 13V16.5349L22.7884 19.3963C23.3608 20.3121 22.7023 21.5 21.6224 21.5H19.1631C18.8245 22.9333 17.5368 24 16 24C14.4632 24 13.1756 22.9333 12.837 21.5H10.3777C9.29771 21.5 8.6393 20.3121 9.21169 19.3963L11 16.5349V13ZM14.4184 21.5C14.6993 22.0912 15.3019 22.5 16 22.5C16.6981 22.5 17.3008 22.0912 17.5816 21.5H14.4184ZM16 9.5C14.067 9.5 12.5 11.067 12.5 13V16.6358C12.5 16.851 12.4396 17.0619 12.3255 17.2444L10.6032 20H21.3968L19.6746 17.2444C19.5605 17.0619 19.5 16.851 19.5 16.6358V13C19.5 11.067 17.933 9.5 16 9.5Z" fill="#505258"/>
</svg>
