<svg width="16" height="16" viewBox="0 0 16 16" fill="none" xmlns="http://www.w3.org/2000/svg">
<path fill-rule="evenodd" clip-rule="evenodd" d="M5.70036 1.38344C6.69622 -0.432539 9.30448 -0.433927 10.3023 1.381L15.6512 11.1103C16.613 12.8597 15.3473 14.9999 13.3509 14.9999H2.66657C0.671419 14.9999 -0.594393 12.8621 0.364938 11.1127L5.70036 1.38344ZM8.98783 2.10364C8.5602 1.32582 7.44237 1.32641 7.01558 2.10469L1.68016 11.834C1.26901 12.5837 1.81151 13.4999 2.66657 13.4999H13.3509C14.2065 13.4999 14.7489 12.5827 14.3367 11.8329L8.98783 2.10364Z" fill="#292A2E"/>
<path fill-rule="evenodd" clip-rule="evenodd" d="M7.24992 8.99992V3.99992H8.74992V8.99992H7.24992Z" fill="#292A2E"/>
<path d="M8.99992 11.2499C8.99992 11.8022 8.5522 12.2499 7.99992 12.2499C7.44763 12.2499 6.99992 11.8022 6.99992 11.2499C6.99992 10.6976 7.44763 10.2499 7.99992 10.2499C8.5522 10.2499 8.99992 10.6976 8.99992 11.2499Z" fill="#292A2E"/>
</svg>
