<svg width="48" height="50" viewBox="0 0 48 50" fill="none" xmlns="http://www.w3.org/2000/svg">
<path d="M21.2938 1.13426C23.0414 0.127121 25.1945 0.12712 26.9421 1.13426L43.4117 10.6258C45.1593 11.633 46.2359 13.4943 46.2359 15.5085V34.4917C46.2359 36.506 45.1593 38.3673 43.4117 39.3744L26.9421 48.866C25.1945 49.8731 23.0414 49.8731 21.2938 48.866L4.82414 39.3744C3.07656 38.3673 2 36.506 2 34.4917V15.5085C2 13.4943 3.07656 11.633 4.82414 10.6258L21.2938 1.13426Z" fill="#FFC716"/>
<path d="M22.4448 9.88023C23.5266 9.28438 24.8469 9.29533 25.9198 9.91307L34.3576 14.7745L36.3584 15.9273C37.4509 16.5563 38.1272 17.7232 38.1272 18.9804V31.0091C38.1272 32.2712 37.455 33.4329 36.3593 34.0616L28.5125 38.5826C28.5297 38.5344 28.5461 38.4859 28.5617 38.4371C28.7073 37.9864 28.7845 37.5102 28.7845 37.0234V24.9947C28.7845 23.3422 27.9038 21.8184 26.4672 20.994L25.0179 20.1593L20.618 17.6254V12.966C20.618 12.5989 20.6748 12.2402 20.7825 11.9007C21.0471 11.079 21.6099 10.3676 22.3798 9.92357L22.3822 9.92222C22.4042 9.9095 22.4252 9.8954 22.4448 9.88023Z" fill="#101214"/>
<path d="M19.7884 11.4185L11.9417 15.9394C10.8459 16.5681 10.1738 17.7299 10.1738 18.992V31.0207C10.1738 32.2778 10.8499 33.4446 11.9424 34.0736L13.8028 35.1455L22.3812 40.088C23.4541 40.7056 24.7745 40.7166 25.8562 40.1208C25.8757 40.1056 25.8966 40.0916 25.9187 40.0789C26.6895 39.6351 27.2531 38.9235 27.5182 38.1015C27.626 37.7616 27.683 37.4026 27.683 37.035V32.3756L23.1425 29.7607L21.8341 29.0072C20.3978 28.1828 19.5164 26.6586 19.5164 25.0063V12.9776C19.5164 12.4915 19.5934 12.016 19.7387 11.5658C19.7545 11.5164 19.7711 11.4673 19.7884 11.4185Z" fill="#101214"/>
<path fill-rule="evenodd" clip-rule="evenodd" d="M23.1425 29.7607L13.8028 35.1455L11.9424 34.0736C10.8499 33.4446 10.1738 32.2778 10.1738 31.0207V18.992C10.1738 17.7299 10.8459 16.5681 11.9417 15.9394L19.7884 11.4185C19.7711 11.4673 19.7545 11.5164 19.7387 11.5658C19.5934 12.016 19.5164 12.4915 19.5164 12.9776V25.0063C19.5164 26.6586 20.3978 28.1828 21.8341 29.0072L23.1425 29.7607Z" fill="#101214"/>
<path fill-rule="evenodd" clip-rule="evenodd" d="M25.0179 20.1593L20.618 17.6254V12.966C20.618 12.5989 20.6748 12.2402 20.7825 11.9007C21.0471 11.079 21.6099 10.3676 22.3798 9.92357L22.3822 9.92222C22.4042 9.9095 22.4252 9.8954 22.4448 9.88023C23.5266 9.28438 24.8469 9.29533 25.9198 9.91307L34.3576 14.7745L25.0179 20.1593Z" fill="#101214"/>
<path fill-rule="evenodd" clip-rule="evenodd" d="M36.3584 15.9273L34.3576 14.7745L25.0179 20.1593L26.4672 20.994C27.9038 21.8184 28.7845 23.3422 28.7845 24.9947V37.0234C28.7845 37.5102 28.7073 37.9864 28.5617 38.4371C28.5461 38.4859 28.5297 38.5344 28.5125 38.5826L36.3593 34.0616C37.455 33.4329 38.1272 32.2712 38.1272 31.0091V18.9804C38.1272 17.7232 37.4509 16.5563 36.3584 15.9273Z" fill="#101214"/>
<path fill-rule="evenodd" clip-rule="evenodd" d="M23.1425 29.7607L13.8028 35.1455L22.3812 40.088C23.4541 40.7056 24.7745 40.7166 25.8562 40.1208C25.8757 40.1056 25.8966 40.0916 25.9187 40.0789C26.6895 39.6351 27.2531 38.9235 27.5182 38.1015C27.626 37.7616 27.683 37.4026 27.683 37.035V32.3756L23.1425 29.7607Z" fill="#101214"/>
</svg>
