<svg width="17" height="16" viewBox="0 0 17 16" fill="none" xmlns="http://www.w3.org/2000/svg">
<path d="M14.5 0C15.0304 0 15.539 0.210865 15.9141 0.585938C16.2891 0.96101 16.5 1.46957 16.5 2V14C16.5 14.5304 16.2891 15.039 15.9141 15.4141C15.539 15.7891 15.0304 16 14.5 16H2.5C1.96957 16 1.46101 15.7891 1.08594 15.4141C0.710865 15.039 0.5 14.5304 0.5 14V2C0.5 1.46957 0.710865 0.96101 1.08594 0.585938C1.46101 0.210865 1.96957 1.57853e-08 2.5 0H14.5Z" fill="#8270DB"/>
<path d="M2.3999 7.99976C2.40004 7.57648 2.7432 7.23319 3.1665 7.23315H5.39795L7.17529 4.27222C7.31385 4.04129 7.56419 3.90015 7.8335 3.90015H9.1665C9.18162 3.90015 9.19653 3.90221 9.21143 3.90308C9.51705 3.12118 10.2764 2.56717 11.1665 2.56714C12.3263 2.56714 13.2661 3.50695 13.2661 4.66675C13.2661 5.82653 12.3263 6.76636 11.1665 6.76636C10.2767 6.76633 9.51728 6.21282 9.21143 5.4314C9.19655 5.43226 9.1816 5.43335 9.1665 5.43335H8.26709L6.72705 7.99976L8.26709 10.5671H9.1665C9.18162 10.5671 9.19652 10.5692 9.21143 10.5701C9.51697 9.78801 10.2762 9.23318 11.1665 9.23315C12.3263 9.23315 13.2661 10.1739 13.2661 11.3337C13.2659 12.4934 12.3262 13.4333 11.1665 13.4333C10.2768 13.4333 9.51736 12.8796 9.21143 12.0984C9.19655 12.0992 9.18159 12.1003 9.1665 12.1003H7.8335C7.56425 12.1003 7.31386 11.9591 7.17529 11.7283L5.39795 8.76636H3.1665C2.74311 8.76632 2.3999 8.42315 2.3999 7.99976ZM10.6001 11.3337C10.6003 11.6465 10.8537 11.9001 11.1665 11.9001C11.4793 11.9001 11.7327 11.6465 11.7329 11.3337C11.7329 11.0208 11.4795 10.7664 11.1665 10.7664C10.8536 10.7664 10.6001 11.0208 10.6001 11.3337ZM10.6001 4.66675C10.6001 4.97967 10.8536 5.23312 11.1665 5.23315C11.4795 5.23315 11.7329 4.97969 11.7329 4.66675C11.7329 4.35379 11.4795 4.10034 11.1665 4.10034C10.8536 4.10038 10.6001 4.35381 10.6001 4.66675Z" fill="white"/>
</svg>
