<svg width="32" height="32" viewBox="0 0 32 32" fill="none" xmlns="http://www.w3.org/2000/svg">
<path fill-rule="evenodd" clip-rule="evenodd" d="M9 11C9 9.89543 9.89543 9 11 9H13C14.1046 9 15 9.89543 15 11V13C15 14.1046 14.1046 15 13 15H11C9.89543 15 9 14.1046 9 13V11ZM11 10.5C10.7239 10.5 10.5 10.7239 10.5 11V13C10.5 13.2761 10.7239 13.5 11 13.5H13C13.2761 13.5 13.5 13.2761 13.5 13V11C13.5 10.7239 13.2761 10.5 13 10.5H11ZM17 11C17 9.89543 17.8954 9 19 9H21C22.1046 9 23 9.89543 23 11V13C23 14.1046 22.1046 15 21 15H19C17.8954 15 17 14.1046 17 13V11ZM19 10.5C18.7239 10.5 18.5 10.7239 18.5 11V13C18.5 13.2761 18.7239 13.5 19 13.5H21C21.2761 13.5 21.5 13.2761 21.5 13V11C21.5 10.7239 21.2761 10.5 21 10.5H19ZM9 19C9 17.8954 9.89543 17 11 17H13C14.1046 17 15 17.8954 15 19V21C15 22.1046 14.1046 23 13 23H11C9.89543 23 9 22.1046 9 21V19ZM11 18.5C10.7239 18.5 10.5 18.7239 10.5 19V21C10.5 21.2761 10.7239 21.5 11 21.5H13C13.2761 21.5 13.5 21.2761 13.5 21V19C13.5 18.7239 13.2761 18.5 13 18.5H11ZM17 19C17 17.8954 17.8954 17 19 17H21C22.1046 17 23 17.8954 23 19V21C23 22.1046 22.1046 23 21 23H19C17.8954 23 17 22.1046 17 21V19ZM19 18.5C18.7239 18.5 18.5 18.7239 18.5 19V21C18.5 21.2761 18.7239 21.5 19 21.5H21C21.2761 21.5 21.5 21.2761 21.5 21V19C21.5 18.7239 21.2761 18.5 21 18.5H19Z" fill="#505258"/>
</svg>
