<svg width="24" height="24" viewBox="0 0 24 24" fill="none" xmlns="http://www.w3.org/2000/svg">
<path d="M2 7C2 4.23858 4.23858 2 7 2H17C19.7614 2 22 4.23858 22 7V17C22 19.7614 19.7614 22 17 22H7C4.23858 22 2 19.7614 2 17V7Z" fill="#DDDEE1"/>
<path fill-rule="evenodd" clip-rule="evenodd" d="M9.02273 11.5457C10.3386 11.3816 11.3816 10.3386 11.5457 9.02273H13.3864V7.56818H11.3567C10.9252 6.50206 9.87996 5.75 8.65909 5.75C7.05244 5.75 5.75 7.05244 5.75 8.65909C5.75 9.87996 6.50206 10.9252 7.56818 11.3567L7.56818 13.3864H9.02273V11.5457ZM8.65909 9.75C9.26158 9.75 9.75 9.26158 9.75 8.65909C9.75 8.0566 9.26158 7.56818 8.65909 7.56818C8.0566 7.56818 7.56818 8.0566 7.56818 8.65909C7.56818 9.26158 8.0566 9.75 8.65909 9.75Z" fill="#101214"/>
<path d="M17.75 8.29545C17.75 9.29961 16.936 10.1136 15.9318 10.1136C14.9277 10.1136 14.1136 9.29961 14.1136 8.29545C14.1136 7.2913 14.9277 6.47727 15.9318 6.47727C16.936 6.47727 17.75 7.2913 17.75 8.29545Z" fill="#101214"/>
<path d="M8.29545 17.75C9.29961 17.75 10.1136 16.936 10.1136 15.9318C10.1136 14.9277 9.29961 14.1136 8.29545 14.1136C7.2913 14.1136 6.47727 14.9277 6.47727 15.9318C6.47727 16.936 7.2913 17.75 8.29545 17.75Z" fill="#101214"/>
<path d="M15.9318 17.75C16.936 17.75 17.75 16.936 17.75 15.9318C17.75 14.9277 16.936 14.1136 15.9318 14.1136C14.9277 14.1136 14.1136 14.9277 14.1136 15.9318C14.1136 16.936 14.9277 17.75 15.9318 17.75Z" fill="#101214"/>
<path d="M13.3864 15.2045H10.8409V16.6591H13.3864V15.2045Z" fill="#101214"/>
<path d="M15.2045 10.8409V13.3864H16.6591V10.8409H15.2045Z" fill="#101214"/>
</svg>
