<svg width="24" height="24" viewBox="0 0 24 24" fill="none" xmlns="http://www.w3.org/2000/svg">
<path fill-rule="evenodd" clip-rule="evenodd" d="M7 6.5C6.72386 6.5 6.5 6.72386 6.5 7V17C6.5 17.2761 6.72386 17.5 7 17.5H11.25V6.5H7ZM12.75 6.5V11.25H17.5V7C17.5 6.72386 17.2761 6.5 17 6.5H12.75ZM17.5 12.75H12.75V17.5H17C17.2761 17.5 17.5 17.2761 17.5 17V12.75ZM5 7C5 5.89543 5.89543 5 7 5H17C18.1046 5 19 5.89543 19 7V17C19 18.1046 18.1046 19 17 19H7C5.89543 19 5 18.1046 5 17V7Z" fill="#505258"/>
</svg>
