<svg width="24" height="24" viewBox="0 0 24 24" fill="none" xmlns="http://www.w3.org/2000/svg">
<path fill-rule="evenodd" clip-rule="evenodd" d="M8.6875 8.5C8.58395 8.5 8.5 8.58395 8.5 8.6875V15.3125C8.5 15.4161 8.58395 15.5 8.6875 15.5H15.3125C15.4161 15.5 15.5 15.4161 15.5 15.3125V14.5H17V15.3125C17 16.2445 16.2445 17 15.3125 17H8.6875C7.75552 17 7 16.2445 7 15.3125V8.6875C7 7.75552 7.75552 7 8.6875 7H9.5V8.5H8.6875ZM11.75 7H16.25C16.6642 7 17 7.33579 17 7.75V12.25H15.5V9.56066L11.5303 13.5303L10.4697 12.4697L14.4393 8.5H11.75V7Z" fill="#505258"/>
</svg>
