<svg width="16" height="16" viewBox="0 0 16 16" fill="none" xmlns="http://www.w3.org/2000/svg">
<rect width="16" height="16" rx="2.4" transform="matrix(1 0 0 -1 0 16)" fill="#FFF7CD"/>
<path fill-rule="evenodd" clip-rule="evenodd" d="M3.90349 3.15692C4.00396 3.05646 4.14022 3.00002 4.2823 3.00002H12.318C12.5209 3.00002 12.7064 3.11466 12.7972 3.29615C12.8879 3.47764 12.8683 3.69483 12.7466 3.85716L10.8448 6.39287L12.7466 8.92859C12.8683 9.09092 12.8879 9.3081 12.7972 9.48959C12.7064 9.67109 12.5209 9.78573 12.318 9.78573H4.81801V13H3.74658V3.53573C3.74658 3.39365 3.80302 3.25739 3.90349 3.15692ZM4.81801 8.7143H11.2466L9.74658 6.7143C9.60373 6.52382 9.60373 6.26192 9.74658 6.07144L11.2466 4.07144H4.81801V8.7143Z" fill="#B16C05"/>
</svg>
