<svg width="24" height="24" viewBox="0 0 24 24" fill="none" xmlns="http://www.w3.org/2000/svg">
<path fill-rule="evenodd" clip-rule="evenodd" d="M5 5.75C5 5.33579 5.33579 5 5.75 5H9.25C9.58486 5 9.87915 5.22198 9.97114 5.54396L10.7923 8.41787C10.9826 9.08393 10.7621 9.79955 10.2299 10.243L8.28978 11.8598C9.2648 13.4106 10.5894 14.7352 12.1402 15.7102L13.757 13.7701C14.2004 13.2379 14.9161 13.0174 15.5821 13.2077L18.456 14.0289C18.778 14.1209 19 14.4151 19 14.75V18.25C19 18.6642 18.6642 19 18.25 19C15.984 19 13.8281 18.3906 11.9413 17.3359C9.73808 16.1041 7.89588 14.2619 6.66414 12.0587C5.60937 10.1719 5 8.01604 5 5.75ZM13.4844 16.4402C14.7341 17.0181 16.0897 17.3794 17.5 17.4747V15.3157L15.17 14.65C15.0749 14.6228 14.9727 14.6543 14.9093 14.7304L13.4844 16.4402ZM7.5598 10.5156L9.26964 9.09069C9.34566 9.02733 9.37716 8.9251 9.34997 8.82995L8.68427 6.5H6.5253C6.62056 7.91026 6.98186 9.26586 7.5598 10.5156Z" fill="#505258"/>
</svg>
