<svg width="24" height="24" viewBox="0 0 24 24" fill="none" xmlns="http://www.w3.org/2000/svg">
<path fill-rule="evenodd" clip-rule="evenodd" d="M4 8C4 6.89543 4.89543 6 6 6H15C16.1046 6 17 6.89543 17 8V9C17 10.1046 16.1046 11 15 11H6C4.89543 11 4 10.1046 4 9V8ZM6 7.5C5.72386 7.5 5.5 7.72386 5.5 8V9C5.5 9.27614 5.72386 9.5 6 9.5H15C15.2761 9.5 15.5 9.27614 15.5 9V8C15.5 7.72386 15.2761 7.5 15 7.5H6ZM7 15C7 13.8954 7.89543 13 9 13H18C19.1046 13 20 13.8954 20 15V16C20 17.1046 19.1046 18 18 18H9C7.89543 18 7 17.1046 7 16V15ZM9 14.5C8.72386 14.5 8.5 14.7239 8.5 15V16C8.5 16.2761 8.72386 16.5 9 16.5H18C18.2761 16.5 18.5 16.2761 18.5 16V15C18.5 14.7239 18.2761 14.5 18 14.5H9Z" fill="#505258"/>
</svg>
