<svg width="16" height="16" viewBox="0 0 16 16" fill="none" xmlns="http://www.w3.org/2000/svg">
<path fill-rule="evenodd" clip-rule="evenodd" d="M15.5815 8.00038C15.5815 8.29339 15.4109 8.5596 15.1446 8.6819L2.06314 14.6923C1.79599 14.8151 1.48177 14.7704 1.25943 14.5781C1.03703 14.3858 0.947577 14.0812 1.03053 13.7992L2.73603 8.00042L1.03051 2.20163C0.947548 1.91957 1.03704 1.61506 1.2594 1.42274C1.48178 1.23041 1.796 1.18575 2.06315 1.3085L15.1446 7.31889C15.4109 7.44124 15.5815 7.70744 15.5815 8.00038ZM4.07897 8.75041L2.93461 12.6412L11.4027 8.75038L4.07897 8.75041ZM11.4028 7.25042L2.93463 3.35965L4.07897 7.25041L11.4028 7.25042Z" fill="#292A2E"/>
</svg>
