<svg width="24" height="24" viewBox="0 0 24 24" fill="none" xmlns="http://www.w3.org/2000/svg">
<path fill-rule="evenodd" clip-rule="evenodd" d="M17.5 6.5C16.9477 6.5 16.5 6.94772 16.5 7.5C16.5 8.05228 16.9477 8.5 17.5 8.5C18.0523 8.5 18.5 8.05228 18.5 7.5C18.5 6.94772 18.0523 6.5 17.5 6.5ZM15.1145 6.75C15.433 5.73572 16.3806 5 17.5 5C18.8807 5 20 6.11929 20 7.5C20 8.88071 18.8807 10 17.5 10C16.3806 10 15.433 9.26428 15.1145 8.25H12.701C12.5269 8.25 12.3652 8.34065 12.2744 8.48927L10.129 12L12.2744 15.5107C12.3652 15.6594 12.5269 15.75 12.701 15.75H15.1145C15.433 14.7357 16.3806 14 17.5 14C18.8807 14 20 15.1193 20 16.5C20 17.8807 18.8807 19 17.5 19C16.3806 19 15.433 18.2643 15.1145 17.25H12.701C12.0043 17.25 11.3578 16.8874 10.9945 16.2929L8.82937 12.75H4V11.25H8.82937L10.9945 7.7071C11.3578 7.11259 12.0043 6.75 12.701 6.75H15.1145ZM17.5 15.5C16.9477 15.5 16.5 15.9477 16.5 16.5C16.5 17.0523 16.9477 17.5 17.5 17.5C18.0523 17.5 18.5 17.0523 18.5 16.5C18.5 15.9477 18.0523 15.5 17.5 15.5Z" fill="#1868DB"/>
</svg>
