<svg width="24" height="24" viewBox="0 0 24 24" fill="none" xmlns="http://www.w3.org/2000/svg">
<path d="M17.8076 13.4959C17.4204 15.0017 16.452 16.3562 14.999 17.1951C13.546 18.034 11.8883 18.1963 10.3906 17.7791C11.6184 17.2949 12.9347 16.6561 14.249 15.8973C15.5633 15.1385 16.7743 14.3172 17.8076 13.4959Z" fill="#292A2E"/>
<path fill-rule="evenodd" clip-rule="evenodd" d="M8.99901 6.80353C11.1123 5.5834 13.6571 5.79628 15.5137 7.13653C16.3728 6.87255 17.1635 6.71216 17.8222 6.68927C18.1993 6.67621 18.5732 6.70645 18.9053 6.81525C19.2434 6.92614 19.5825 7.1353 19.793 7.49982C20.1467 8.11278 19.9449 8.79658 19.6865 9.29962C19.4099 9.83803 18.9498 10.413 18.3799 10.9881C18.25 11.1191 18.1108 11.2506 17.9668 11.3846C17.5231 11.7972 17.0129 12.2211 16.4502 12.6473C15.58 13.3063 14.5835 13.9714 13.499 14.5975C12.4144 15.2236 11.3399 15.7544 10.334 16.1785C9.68362 16.4527 9.06241 16.6832 8.48338 16.8611L8.48143 16.8602C8.29376 16.9178 8.11068 16.9725 7.9326 17.0193C7.14965 17.2254 6.42189 17.3371 5.81737 17.3074C5.3117 17.2826 4.70305 17.1457 4.32713 16.6776C4.3094 16.6555 4.29204 16.6328 4.27537 16.6092L4.20506 16.4998L4.13475 16.3611C3.99273 16.0362 3.99274 15.6931 4.05662 15.3885C4.12844 15.0465 4.28847 14.7075 4.48827 14.3875C4.83736 13.8286 5.37139 13.224 6.02928 12.6121C5.79679 10.3341 6.88567 8.0237 8.99901 6.80353ZM6.45799 14.3026C6.15618 14.627 5.9216 14.9223 5.75975 15.1815C5.6131 15.4163 5.54721 15.5883 5.5244 15.6971C5.52051 15.7157 5.52083 15.7311 5.51952 15.743C5.56759 15.7647 5.67539 15.7988 5.89061 15.8094C6.21859 15.8254 6.67002 15.7737 7.23338 15.6443C7.07857 15.4414 6.93375 15.2268 6.80272 14.9998C6.67134 14.7723 6.55663 14.5391 6.45799 14.3026ZM14.8867 8.54669C13.4779 7.36882 11.4297 7.13203 9.74901 8.10236C8.1732 9.01215 7.35437 10.7322 7.51854 12.4344L7.56444 12.7742C7.65258 13.2789 7.82929 13.7783 8.10155 14.2498C8.29997 14.5935 8.53689 14.9015 8.80369 15.1707C9.98515 14.7414 11.3458 14.1088 12.749 13.2986C14.1519 12.4887 15.3794 11.6265 16.3418 10.8182C16.2421 10.4526 16.0948 10.0934 15.8965 9.74982C15.6582 9.33706 15.3651 8.97638 15.0322 8.67267L14.8867 8.54669ZM17.874 8.18732C17.5685 8.19795 17.1948 8.25307 16.7627 8.35236C16.9184 8.55619 17.0638 8.77211 17.1953 8.99982C17.3263 9.22676 17.4387 9.45957 17.5371 9.69513C17.9313 9.27144 18.2024 8.90637 18.3525 8.61407C18.4508 8.4226 18.4742 8.31217 18.4795 8.25958C18.4687 8.25479 18.4559 8.24677 18.4385 8.24103C18.3328 8.2064 18.1507 8.17773 17.874 8.18732Z" fill="#292A2E"/>
</svg>
