<svg width="24" height="24" viewBox="0 0 24 24" fill="none" xmlns="http://www.w3.org/2000/svg">
<path d="M2 7C2 4.23858 4.23858 2 7 2H17C19.7614 2 22 4.23858 22 7V17C22 19.7614 19.7614 22 17 22H7C4.23858 22 2 19.7614 2 17V7Z" fill="#DDDEE1"/>
<path d="M8.71224 11.375C9.92036 11.375 10.8997 10.3956 10.8997 9.1875C10.8997 7.97938 9.92036 7 8.71224 7C7.50412 7 6.52474 7.97938 6.52474 9.1875C6.52474 10.3956 7.50412 11.375 8.71224 11.375Z" fill="#101214"/>
<path d="M15.2747 11.375C16.4829 11.375 17.4622 10.3956 17.4622 9.1875C17.4622 7.97938 16.4829 7 15.2747 7C14.0666 7 13.0872 7.97938 13.0872 9.1875C13.0872 10.3956 14.0666 11.375 15.2747 11.375Z" fill="#101214"/>
<path d="M15.4149 12.4688C16.747 12.4688 17.8268 13.5486 17.8268 14.8807V17H11.8112L13.1936 13.9409C13.5711 13.0486 14.446 12.4688 15.4149 12.4688Z" fill="#101214"/>
<path d="M6.16016 15.0208L6.16016 17H10.1706L11.2643 14.6562C11.2643 13.4481 10.2849 12.4687 9.07682 12.4687H8.71224C7.30276 12.4687 6.16016 13.6114 6.16016 15.0208Z" fill="#101214"/>
</svg>
