<svg width="16" height="16" viewBox="0 0 16 16" fill="none" xmlns="http://www.w3.org/2000/svg">
<path d="M14.4999 5C14.4999 4.93804 14.4973 4.87654 14.4941 4.81543L12.7802 6.53027C12.5056 6.80485 12.0709 6.82226 11.7763 6.58203L11.7197 6.53027L9.46967 4.28027C9.17678 3.98738 9.17678 3.51262 9.46967 3.21973L11.1835 1.50488C11.1228 1.50175 11.0616 1.5 10.9999 1.5C9.06695 1.5 7.49994 3.067 7.49994 5C7.49994 5.48724 7.59881 5.94964 7.77729 6.36914C7.8969 6.65044 7.83405 6.97607 7.61811 7.19238L1.78901 13.0215C1.46063 13.3499 1.4606 13.8825 1.78901 14.2109L1.85248 14.2686C2.18279 14.5382 2.67048 14.5189 2.97846 14.2109L8.71967 8.46973L8.80659 8.38184L8.89252 8.30859C9.10376 8.15293 9.3843 8.11779 9.6308 8.22266C10.0503 8.40114 10.5127 8.5 10.9999 8.5C11.1369 8.5 11.2719 8.49175 11.4042 8.47656L11.5664 8.4541C13.2296 8.18374 14.4999 6.73989 14.4999 5ZM9.06928 10.2412L13.039 14.2109C13.3674 14.5393 13.9001 14.5393 14.2285 14.2109C14.5569 13.8825 14.5568 13.3499 14.2285 13.0215L11.2011 9.99414C11.1343 9.99679 11.0673 10 10.9999 10C10.4892 10 9.99562 9.92226 9.53022 9.7793L9.06928 10.2412ZM1.66303 1.89648L2.46186 3.48242H3.49994V2.46387L1.89741 1.66211L1.66303 1.89648ZM15.9999 5C15.9999 7.07444 14.7366 8.85224 12.9374 9.60938L15.289 11.9609C16.2031 12.8752 16.2032 14.3573 15.289 15.2715C14.3748 16.1857 12.8927 16.1856 11.9785 15.2715L8.00873 11.3018L4.03901 15.2715C3.182 16.1284 1.82565 16.1823 0.906194 15.4326L0.72846 15.2715C-0.185738 14.3573 -0.185706 12.8752 0.72846 11.9609L5.82319 6.86621L3.9394 4.98242H1.99994C1.71664 4.98242 1.45744 4.82237 1.33002 4.56934L0.0800225 2.08691C-0.0653419 1.79794 -0.0090798 1.44848 0.219671 1.21973L1.21967 0.219727L1.31049 0.142578C1.53404 -0.0192132 1.83227 -0.0470879 2.08491 0.0791016L4.58491 1.3291L4.67573 1.38281C4.87677 1.5215 4.99994 1.75136 4.99994 2V3.92188L6.0019 4.92383C6.04262 2.19754 8.26396 0 10.9999 0C11.6926 1.29675e-05 12.3542 0.141434 12.956 0.397461L13.039 0.438477C13.225 0.546379 13.3568 0.730393 13.3984 0.944336C13.4458 1.189 13.3686 1.44194 13.1923 1.61816L11.0605 3.75L12.249 4.93848L14.3818 2.80664L14.4511 2.74609C14.6209 2.61367 14.8414 2.56001 15.0556 2.60156C15.3 2.64914 15.505 2.81479 15.6025 3.04395C15.8585 3.64574 15.9999 4.30733 15.9999 5Z" fill="#292A2E"/>
</svg>
